<svg width="20" height="20" viewBox="0 0 20 20" fill="none" xmlns="http://www.w3.org/2000/svg">
<g clip-path="url(#clip0_401_58542)">
<path d="M16.6665 8.08425C16.6658 8.25264 16.6289 8.41915 16.5579 8.57381C16.4869 8.72847 16.3833 8.86808 16.2534 8.98426L10.9223 13.8093C10.6731 14.0383 10.3382 14.1666 9.98933 14.1666C9.64047 14.1666 9.30552 14.0383 9.05639 13.8093L3.7253 8.80926C3.60104 8.69271 3.50246 8.55435 3.43521 8.40207C3.36796 8.24979 3.33334 8.08658 3.33334 7.92175C3.33334 7.75693 3.36796 7.59371 3.43521 7.44144C3.50246 7.28916 3.60104 7.15079 3.7253 7.03424C3.84957 6.9177 3.99709 6.82524 4.15945 6.76217C4.32181 6.69909 4.49583 6.66663 4.67157 6.66663C4.84731 6.66663 5.02132 6.69909 5.18369 6.76217C5.34605 6.82524 5.49357 6.9177 5.61784 7.03424L10.0027 11.1593L14.4008 7.18425C14.6505 6.95143 14.9883 6.82075 15.3404 6.82075C15.6925 6.82075 16.0303 6.95143 16.28 7.18425C16.4051 7.30253 16.5038 7.44308 16.5702 7.59764C16.6365 7.7522 16.6693 7.91765 16.6665 8.08425Z" fill="#989EC3"/>
</g>
<defs>
<clipPath id="clip0_401_58542">
<rect width="20" height="20" fill="white" transform="translate(0 20) rotate(-90)"/>
</clipPath>
</defs>
</svg>
