<svg width="25" height="24" viewBox="0 0 25 24" fill="none" xmlns="http://www.w3.org/2000/svg">
<path fill-rule="evenodd" clip-rule="evenodd" d="M7.5 1.75C7.91421 1.75 8.25 2.08579 8.25 2.5V3.26272C8.91203 3.24999 9.6414 3.24999 10.4436 3.25H14.5564C15.3586 3.24999 16.088 3.24999 16.75 3.26272V2.5C16.75 2.08579 17.0858 1.75 17.5 1.75C17.9142 1.75 18.25 2.08579 18.25 2.5V3.32709C18.5099 3.34691 18.7561 3.37182 18.989 3.40313C20.1614 3.56076 21.1104 3.89288 21.8588 4.64124C22.6071 5.38961 22.9392 6.33855 23.0969 7.51098C23.1472 7.88567 23.181 8.29459 23.2037 8.74007C23.2337 8.82106 23.25 8.90861 23.25 9C23.25 9.06932 23.2406 9.13644 23.223 9.20016C23.25 10.0021 23.25 10.9128 23.25 11.9436V14C23.25 14.4142 22.9142 14.75 22.5 14.75C22.0858 14.75 21.75 14.4142 21.75 14V12C21.75 11.146 21.7497 10.4027 21.7369 9.75H3.26309C3.25032 10.4027 3.25 11.146 3.25 12V14C3.25 15.9068 3.25159 17.2615 3.38976 18.2892C3.52502 19.2952 3.77869 19.8749 4.2019 20.2981C4.62511 20.7213 5.20476 20.975 6.21085 21.1102C7.23851 21.2484 8.59318 21.25 10.5 21.25H14.5C14.9142 21.25 15.25 21.5858 15.25 22C15.25 22.4142 14.9142 22.75 14.5 22.75H10.4436C8.60583 22.75 7.15019 22.75 6.01098 22.5969C4.83856 22.4392 3.88961 22.1071 3.14124 21.3588C2.39288 20.6104 2.06076 19.6614 1.90314 18.489C1.74997 17.3498 1.74998 15.8942 1.75 14.0564V11.9436C1.74999 10.9127 1.74998 10.0021 1.77701 9.20017C1.75941 9.13645 1.75 9.06932 1.75 9C1.75 8.90862 1.76634 8.82105 1.79627 8.74006C1.81895 8.29458 1.85276 7.88566 1.90314 7.51098C2.06076 6.33856 2.39288 5.38961 3.14124 4.64124C3.88961 3.89288 4.83856 3.56076 6.01098 3.40313C6.2439 3.37182 6.49006 3.34691 6.75 3.32709V2.5C6.75 2.08579 7.08579 1.75 7.5 1.75ZM3.33168 8.25H21.6683C21.6523 8.06061 21.6331 7.88123 21.6102 7.71085C21.475 6.70476 21.2213 6.12511 20.7981 5.7019C20.3749 5.27869 19.7952 5.02502 18.7892 4.88976C17.7615 4.75159 16.4068 4.75 14.5 4.75H10.5C8.59318 4.75 7.23851 4.75159 6.21085 4.88976C5.20476 5.02502 4.62511 5.27869 4.2019 5.7019C3.77869 6.12511 3.52502 6.70476 3.38976 7.71085C3.36685 7.88123 3.3477 8.06061 3.33168 8.25ZM18.5 15.75C17.2574 15.75 16.25 16.7574 16.25 18C16.25 19.2426 17.2574 20.25 18.5 20.25C19.7426 20.25 20.75 19.2426 20.75 18C20.75 16.7574 19.7426 15.75 18.5 15.75ZM14.75 18C14.75 15.9289 16.4289 14.25 18.5 14.25C20.5711 14.25 22.25 15.9289 22.25 18C22.25 18.7643 22.0213 19.4752 21.6287 20.068L23.0303 21.4697C23.3232 21.7626 23.3232 22.2374 23.0303 22.5303C22.7374 22.8232 22.2626 22.8232 21.9697 22.5303L20.568 21.1287C19.9752 21.5213 19.2643 21.75 18.5 21.75C16.4289 21.75 14.75 20.0711 14.75 18Z" fill="#858699"/>
</svg>
