<svg width="25" height="24" viewBox="0 0 25 24" fill="none" xmlns="http://www.w3.org/2000/svg">
<path fill-rule="evenodd" clip-rule="evenodd" d="M21.6009 8.00353C21.5442 7.99996 21.4825 7.99998 21.4186 8L21.4026 8.00001H18.8941C16.8264 8.00001 15.0572 9.62757 15.0572 11.75C15.0572 13.8724 16.8264 15.5 18.8941 15.5H21.4026L21.4186 15.5C21.4825 15.5 21.5442 15.5001 21.6009 15.4965C22.4408 15.4434 23.1835 14.7862 23.246 13.8682C23.2501 13.808 23.25 13.7431 23.25 13.683L23.25 13.6667V9.83334L23.25 9.81702C23.25 9.75688 23.2501 9.69199 23.246 9.6318C23.1835 8.71381 22.4408 8.05657 21.6009 8.00353ZM18.6717 12.75C19.204 12.75 19.6355 12.3023 19.6355 11.75C19.6355 11.1977 19.204 10.75 18.6717 10.75C18.1394 10.75 17.7078 11.1977 17.7078 11.75C17.7078 12.3023 18.1394 12.75 18.6717 12.75Z" fill="#858699"/>
<path fill-rule="evenodd" clip-rule="evenodd" d="M21.4179 17C21.567 16.9961 21.6799 17.1342 21.6394 17.2778C21.4387 17.9902 21.12 18.5975 20.6088 19.1088C19.8604 19.8571 18.9114 20.1892 17.739 20.3469C16.5998 20.5 15.1442 20.5 13.3064 20.5H11.1936C9.35583 20.5 7.90019 20.5 6.76098 20.3469C5.58856 20.1892 4.63961 19.8571 3.89124 19.1088C3.14288 18.3604 2.81076 17.4114 2.65314 16.239C2.49997 15.0998 2.49998 13.6442 2.5 11.8064V11.6936C2.49998 9.85583 2.49997 8.40019 2.65314 7.26098C2.81076 6.08856 3.14288 5.13961 3.89124 4.39124C4.63961 3.64288 5.58856 3.31076 6.76098 3.15314C7.90019 2.99997 9.35582 2.99998 11.1936 3L13.3064 3C15.1442 2.99998 16.5998 2.99997 17.739 3.15314C18.9114 3.31076 19.8604 3.64288 20.6088 4.39124C21.12 4.90252 21.4386 5.50974 21.6394 6.22218C21.6799 6.36575 21.567 6.50387 21.4179 6.5L18.894 6.50001C16.0574 6.50001 13.5571 8.74091 13.5571 11.75C13.5571 14.7591 16.0574 17 18.894 17L21.4179 17ZM6.25 7C5.83579 7 5.5 7.33579 5.5 7.75C5.5 8.16421 5.83579 8.5 6.25 8.5H10.25C10.6642 8.5 11 8.16421 11 7.75C11 7.33579 10.6642 7 10.25 7H6.25Z" fill="#858699"/>
</svg>
