<svg width="10" height="10" viewBox="0 0 10 10" fill="none" xmlns="http://www.w3.org/2000/svg">
<path fill-rule="evenodd" clip-rule="evenodd" d="M2.20553 2.20535C2.36825 2.04263 2.63207 2.04263 2.79479 2.20535L5.00016 4.41072L7.20553 2.20535C7.36825 2.04263 7.63207 2.04263 7.79479 2.20535C7.95751 2.36807 7.95751 2.63189 7.79479 2.79461L5.58942 4.99998L7.79479 7.20535C7.95751 7.36807 7.95751 7.63189 7.79479 7.79461C7.63207 7.95733 7.36825 7.95733 7.20553 7.79461L5.00016 5.58924L2.79479 7.79461C2.63207 7.95733 2.36825 7.95733 2.20553 7.79461C2.04282 7.63189 2.04282 7.36807 2.20553 7.20535L4.41091 4.99998L2.20553 2.79461C2.04282 2.63189 2.04282 2.36807 2.20553 2.20535Z" fill="white" fill-opacity="0.4"/>
</svg>
