<svg width="25" height="24" viewBox="0 0 25 24" fill="none" xmlns="http://www.w3.org/2000/svg">
<path d="M3.5 22H21.5" stroke="#858699" stroke-width="1.5" stroke-linecap="round" stroke-linejoin="round"/>
<path d="M6.09998 8.37988H4.5C3.95 8.37988 3.5 8.82988 3.5 9.37988V17.9999C3.5 18.5499 3.95 18.9999 4.5 18.9999H6.09998C6.64998 18.9999 7.09998 18.5499 7.09998 17.9999V9.37988C7.09998 8.82988 6.64998 8.37988 6.09998 8.37988Z" stroke="#858699" stroke-width="1.5" stroke-linecap="round" stroke-linejoin="round"/>
<path d="M13.3002 5.19043H11.7002C11.1502 5.19043 10.7002 5.64043 10.7002 6.19043V18.0004C10.7002 18.5504 11.1502 19.0004 11.7002 19.0004H13.3002C13.8502 19.0004 14.3002 18.5504 14.3002 18.0004V6.19043C14.3002 5.64043 13.8502 5.19043 13.3002 5.19043Z" stroke="#858699" stroke-width="1.5" stroke-linecap="round" stroke-linejoin="round"/>
<path d="M20.4999 2H18.8999C18.3499 2 17.8999 2.45 17.8999 3V18C17.8999 18.55 18.3499 19 18.8999 19H20.4999C21.0499 19 21.4999 18.55 21.4999 18V3C21.4999 2.45 21.0499 2 20.4999 2Z" stroke="#858699" stroke-width="1.5" stroke-linecap="round" stroke-linejoin="round"/>
</svg>
