<svg width="25" height="24" viewBox="0 0 25 24" fill="none" xmlns="http://www.w3.org/2000/svg">
<path fill-rule="evenodd" clip-rule="evenodd" d="M5.45301 2.25C5.46862 2.25 5.48429 2.25 5.50001 2.25L19.547 2.25C20.2139 2.24997 20.7841 2.24994 21.2398 2.30742C21.7231 2.36839 22.1902 2.50529 22.5738 2.86524C22.9643 3.23154 23.1194 3.68856 23.1875 4.16405C23.2501 4.60084 23.2501 5.14397 23.25 5.76358L23.25 6.54012C23.25 7.02863 23.25 7.45095 23.2136 7.80311C23.1743 8.18206 23.0885 8.5376 22.8825 8.87893C22.6781 9.2177 22.4028 9.4636 22.0854 9.68404C21.7865 9.8917 21.4045 10.1067 20.9553 10.3596L18.0129 12.0159C17.3431 12.393 17.1099 12.5288 16.9542 12.6639C16.5966 12.9744 16.3918 13.3188 16.2956 13.7504C16.2545 13.9349 16.25 14.1672 16.25 14.8729L16.25 17.605C16.2501 18.5062 16.2501 19.2714 16.1574 19.8596C16.0587 20.4851 15.8298 21.0849 15.2298 21.4602C14.6434 21.827 13.9975 21.7933 13.3698 21.6442C12.7653 21.5007 12.0203 21.2094 11.1264 20.8599L11.0395 20.826C10.6208 20.6623 10.2541 20.519 9.96385 20.3691C9.6519 20.208 9.3622 20.0076 9.14055 19.6957C8.91641 19.3803 8.82655 19.042 8.78648 18.6963C8.74994 18.381 8.74997 18.0026 8.75 17.5806L8.75 14.8729C8.75 14.1672 8.74555 13.9349 8.70442 13.7504C8.6082 13.3188 8.40342 12.9744 8.04584 12.6639C7.89014 12.5288 7.65692 12.393 6.98714 12.0159L4.04471 10.3596C3.59549 10.1067 3.21353 9.8917 2.91458 9.68404C2.59724 9.4636 2.32191 9.2177 2.11747 8.87893C1.91148 8.5376 1.82571 8.18206 1.78645 7.80311C1.74996 7.45094 1.74998 7.02863 1.75 6.54012L1.75001 5.81466C1.75001 5.79757 1.75 5.78054 1.75 5.76357C1.74996 5.14396 1.74991 4.60084 1.81251 4.16405C1.88064 3.68856 2.03576 3.23154 2.42618 2.86524C2.80983 2.50529 3.27695 2.36839 3.76024 2.30742C4.21592 2.24994 4.78607 2.24997 5.45301 2.25ZM3.94796 3.79563C3.6143 3.83772 3.5082 3.90691 3.45251 3.95916C3.40359 4.00505 3.33904 4.08585 3.29734 4.37683C3.25181 4.69454 3.25001 5.12868 3.25001 5.81466V6.50448C3.25001 7.03869 3.25093 7.38278 3.27846 7.64854C3.3041 7.89605 3.34813 8.01507 3.40174 8.10391C3.4569 8.19532 3.5485 8.298 3.77034 8.45209C4.00406 8.61444 4.32336 8.79508 4.80993 9.06899L7.72296 10.7088C7.75024 10.7242 7.7771 10.7393 7.80357 10.7542C8.36227 11.0685 8.74278 11.2826 9.0292 11.5312C9.62056 12.0446 9.99997 12.6682 10.1685 13.424C10.2504 13.7913 10.2502 14.2031 10.25 14.7845C10.25 14.8135 10.25 14.843 10.25 14.8729V17.5424C10.25 18.0146 10.2512 18.305 10.2765 18.5236C10.2994 18.7213 10.3355 18.7878 10.3633 18.8269C10.3936 18.8695 10.4536 18.9338 10.652 19.0363C10.8644 19.146 11.1571 19.2614 11.6192 19.442C12.5802 19.8177 13.2266 20.0685 13.7164 20.1848C14.195 20.2985 14.3527 20.2396 14.4343 20.1885C14.5023 20.146 14.6073 20.0597 14.6757 19.626C14.7478 19.1686 14.75 18.5234 14.75 17.5424V14.8729C14.75 14.843 14.75 14.8135 14.75 14.7845C14.7498 14.2031 14.7496 13.7913 14.8315 13.424C15 12.6682 15.3794 12.0446 15.9708 11.5312C16.2572 11.2826 16.6377 11.0685 17.1964 10.7542C17.2229 10.7393 17.2498 10.7242 17.2771 10.7088L20.1901 9.06899C20.6767 8.79508 20.996 8.61444 21.2297 8.45209C21.4515 8.298 21.5431 8.19532 21.5983 8.10391C21.6519 8.01507 21.6959 7.89605 21.7215 7.64854C21.7491 7.38278 21.75 7.03869 21.75 6.50448V5.81466C21.75 5.12868 21.7482 4.69454 21.7027 4.37683C21.661 4.08585 21.5964 4.00505 21.5475 3.95916C21.4918 3.90691 21.3857 3.83772 21.0521 3.79563C20.7015 3.75141 20.227 3.75 19.5 3.75H5.50001C4.77297 3.75 4.29854 3.75141 3.94796 3.79563Z" fill="#858699"/>
</svg>
