<svg width="25" height="24" viewBox="0 0 25 24" fill="none" xmlns="http://www.w3.org/2000/svg">
<path fill-rule="evenodd" clip-rule="evenodd" d="M18 2.75C18.4142 2.75 18.75 3.08579 18.75 3.5V5.75H21C21.4142 5.75 21.75 6.08579 21.75 6.5C21.75 6.91421 21.4142 7.25 21 7.25H18.75V9.5C18.75 9.91421 18.4142 10.25 18 10.25C17.5858 10.25 17.25 9.91421 17.25 9.5V7.25H15C14.5858 7.25 14.25 6.91421 14.25 6.5C14.25 6.08579 14.5858 5.75 15 5.75H17.25V3.5C17.25 3.08579 17.5858 2.75 18 2.75Z" fill="#858699"/>
<path d="M2.5 6.5C2.5 4.37868 2.5 3.31802 3.15901 2.65901C3.81802 2 4.87868 2 7 2C9.12132 2 10.182 2 10.841 2.65901C11.5 3.31802 11.5 4.37868 11.5 6.5C11.5 8.62132 11.5 9.68198 10.841 10.341C10.182 11 9.12132 11 7 11C4.87868 11 3.81802 11 3.15901 10.341C2.5 9.68198 2.5 8.62132 2.5 6.5Z" fill="#858699"/>
<path d="M13.5 17.5C13.5 15.3787 13.5 14.318 14.159 13.659C14.818 13 15.8787 13 18 13C20.1213 13 21.182 13 21.841 13.659C22.5 14.318 22.5 15.3787 22.5 17.5C22.5 19.6213 22.5 20.682 21.841 21.341C21.182 22 20.1213 22 18 22C15.8787 22 14.818 22 14.159 21.341C13.5 20.682 13.5 19.6213 13.5 17.5Z" fill="#858699"/>
<path d="M2.5 17.5C2.5 15.3787 2.5 14.318 3.15901 13.659C3.81802 13 4.87868 13 7 13C9.12132 13 10.182 13 10.841 13.659C11.5 14.318 11.5 15.3787 11.5 17.5C11.5 19.6213 11.5 20.682 10.841 21.341C10.182 22 9.12132 22 7 22C4.87868 22 3.81802 22 3.15901 21.341C2.5 20.682 2.5 19.6213 2.5 17.5Z" fill="#858699"/>
</svg>
