<svg width="25" height="24" viewBox="0 0 25 24" fill="none" xmlns="http://www.w3.org/2000/svg">
<rect x="2.5" y="2" width="20" height="20" rx="10" fill="#8E91D9"/>
<path d="M13.4591 13.3169H7.38379V11.811H13.4361C13.9572 11.811 14.3883 11.7248 14.7293 11.5523C15.0704 11.3761 15.3233 11.1347 15.488 10.8281C15.6528 10.5178 15.7352 10.1614 15.7352 9.75907C15.7352 9.36056 15.6528 9.00421 15.488 8.69C15.3233 8.37579 15.0723 8.12864 14.7351 7.94855C14.3979 7.76462 13.9725 7.67266 13.4591 7.67266H10.9531V17.9265H9.18281V6.15527H13.4591C14.3519 6.15527 15.0972 6.31621 15.6949 6.63808C16.2965 6.95995 16.7468 7.39294 17.0456 7.93705C17.3484 8.48117 17.4997 9.08659 17.4997 9.75332C17.4997 10.4277 17.3464 11.0351 17.0399 11.5753C16.7372 12.1118 16.285 12.5371 15.6834 12.8513C15.0857 13.1617 14.3442 13.3169 13.4591 13.3169ZM13.5453 14.3055V15.8171H7.38379V14.3055H13.5453Z" fill="white"/>
</svg>
