<svg width="25" height="24" viewBox="0 0 25 24" fill="none" xmlns="http://www.w3.org/2000/svg">
<path fill-rule="evenodd" clip-rule="evenodd" d="M11.3118 2.88506C11.4149 2.49434 11.1975 2.08961 10.8263 1.98107C10.455 1.87254 10.0704 2.1013 9.96731 2.49202L8.55885 7.8283H5.05814C4.67282 7.8283 4.36047 8.15703 4.36047 8.56255C4.36047 8.96807 4.67282 9.2968 5.05814 9.2968H8.17126L6.75007 14.6813H3.19767C2.81236 14.6813 2.5 15.01 2.5 15.4156C2.5 15.8211 2.81236 16.1498 3.19767 16.1498H6.36247L5.31615 20.1141C5.21302 20.5048 5.43039 20.9095 5.80164 21.018C6.1729 21.1266 6.55747 20.8978 6.66059 20.5071L7.81066 16.1498H14.7346L13.6882 20.1141C13.5851 20.5048 13.8025 20.9095 14.1737 21.018C14.545 21.1266 14.9296 20.8978 15.0327 20.5071L16.1827 16.1498H19.9419C20.3272 16.1498 20.6395 15.8211 20.6395 15.4156C20.6395 15.01 20.3272 14.6813 19.9419 14.6813H16.5703L17.9915 9.2968H21.8023C22.1876 9.2968 22.5 8.96807 22.5 8.56255C22.5 8.15703 22.1876 7.8283 21.8023 7.8283H18.3791L19.6839 2.88506C19.787 2.49434 19.5696 2.08961 19.1984 1.98107C18.8271 1.87254 18.4425 2.1013 18.3394 2.49202L16.9309 7.8283H10.007L11.3118 2.88506ZM15.1222 14.6813L16.5434 9.2968H9.61944L8.19825 14.6813H15.1222Z" fill="#858699"/>
</svg>
