<svg width="25" height="24" viewBox="0 0 25 24" fill="none" xmlns="http://www.w3.org/2000/svg">
<path d="M12.5 17.75C12.9142 17.75 13.25 17.4142 13.25 17V11C13.25 10.5858 12.9142 10.25 12.5 10.25C12.0858 10.25 11.75 10.5858 11.75 11V17C11.75 17.4142 12.0858 17.75 12.5 17.75Z" fill="#858699"/>
<path d="M12.5 7C13.0523 7 13.5 7.44772 13.5 8C13.5 8.55228 13.0523 9 12.5 9C11.9477 9 11.5 8.55228 11.5 8C11.5 7.44772 11.9477 7 12.5 7Z" fill="#858699"/>
<path fill-rule="evenodd" clip-rule="evenodd" d="M1.75 12C1.75 6.06294 6.56294 1.25 12.5 1.25C18.4371 1.25 23.25 6.06294 23.25 12C23.25 17.9371 18.4371 22.75 12.5 22.75C6.56294 22.75 1.75 17.9371 1.75 12ZM12.5 2.75C7.39137 2.75 3.25 6.89137 3.25 12C3.25 17.1086 7.39137 21.25 12.5 21.25C17.6086 21.25 21.75 17.1086 21.75 12C21.75 6.89137 17.6086 2.75 12.5 2.75Z" fill="#858699"/>
</svg>
