<svg width="25" height="24" viewBox="0 0 25 24" fill="none" xmlns="http://www.w3.org/2000/svg">
<path fill-rule="evenodd" clip-rule="evenodd" d="M7.74502 2H17.255C18.4139 2 18.9933 2 19.4606 2.16261C20.3468 2.47096 21.0425 3.18719 21.342 4.09946C21.5 4.58055 21.5 5.17705 21.5 6.37006V20.3742C21.5 21.2324 20.515 21.6878 19.8919 21.1176C19.5258 20.7826 18.9742 20.7826 18.6081 21.1176L18.125 21.5597C17.4834 22.1468 16.5166 22.1468 15.875 21.5597C15.2334 20.9726 14.2666 20.9726 13.625 21.5597C12.9834 22.1468 12.0166 22.1468 11.375 21.5597C10.7334 20.9726 9.76659 20.9726 9.125 21.5597C8.48341 22.1468 7.51659 22.1468 6.875 21.5597L6.3919 21.1176C6.02583 20.7826 5.47417 20.7826 5.1081 21.1176C4.485 21.6878 3.5 21.2324 3.5 20.3742V6.37006C3.5 5.17705 3.5 4.58055 3.65795 4.09946C3.95748 3.18719 4.65322 2.47096 5.53939 2.16261C6.00671 2 6.58614 2 7.74502 2ZM7.5 6.75C7.08579 6.75 6.75 7.08579 6.75 7.5C6.75 7.91421 7.08579 8.25 7.5 8.25H8C8.41421 8.25 8.75 7.91421 8.75 7.5C8.75 7.08579 8.41421 6.75 8 6.75H7.5ZM11 6.75C10.5858 6.75 10.25 7.08579 10.25 7.5C10.25 7.91421 10.5858 8.25 11 8.25H17.5C17.9142 8.25 18.25 7.91421 18.25 7.5C18.25 7.08579 17.9142 6.75 17.5 6.75H11ZM7.5 10.25C7.08579 10.25 6.75 10.5858 6.75 11C6.75 11.4142 7.08579 11.75 7.5 11.75H8C8.41421 11.75 8.75 11.4142 8.75 11C8.75 10.5858 8.41421 10.25 8 10.25H7.5ZM11 10.25C10.5858 10.25 10.25 10.5858 10.25 11C10.25 11.4142 10.5858 11.75 11 11.75H17.5C17.9142 11.75 18.25 11.4142 18.25 11C18.25 10.5858 17.9142 10.25 17.5 10.25H11ZM7.5 13.75C7.08579 13.75 6.75 14.0858 6.75 14.5C6.75 14.9142 7.08579 15.25 7.5 15.25H8C8.41421 15.25 8.75 14.9142 8.75 14.5C8.75 14.0858 8.41421 13.75 8 13.75H7.5ZM11 13.75C10.5858 13.75 10.25 14.0858 10.25 14.5C10.25 14.9142 10.5858 15.25 11 15.25H17.5C17.9142 15.25 18.25 14.9142 18.25 14.5C18.25 14.0858 17.9142 13.75 17.5 13.75H11Z" fill="#858699"/>
</svg>
