<svg width="25" height="24" viewBox="0 0 25 24" fill="none" xmlns="http://www.w3.org/2000/svg">
<path fill-rule="evenodd" clip-rule="evenodd" d="M12.5 22C18.0228 22 22.5 17.5228 22.5 12C22.5 6.47715 18.0228 2 12.5 2C6.97715 2 2.5 6.47715 2.5 12C2.5 17.5228 6.97715 22 12.5 22ZM12.5 7.25C12.9142 7.25 13.25 7.58579 13.25 8V11.6893L15.5303 13.9697C15.8232 14.2626 15.8232 14.7374 15.5303 15.0303C15.2374 15.3232 14.7626 15.3232 14.4697 15.0303L11.9697 12.5303C11.829 12.3897 11.75 12.1989 11.75 12V8C11.75 7.58579 12.0858 7.25 12.5 7.25Z" fill="#858699"/>
</svg>
