<svg width="25" height="24" viewBox="0 0 25 24" fill="none" xmlns="http://www.w3.org/2000/svg">
<path fill-rule="evenodd" clip-rule="evenodd" d="M14.3 22H10.7C7.30589 22 5.60883 22 4.55442 20.8284C3.5 19.6569 3.5 17.7712 3.5 14V10C3.5 6.22876 3.5 4.34315 4.55442 3.17157C5.60883 2 7.31482 2 10.7268 2C11.2722 2 11.7093 2 12.077 2.01666C12.0649 2.09659 12.0586 2.17813 12.0583 2.26057L12.05 5.09497C12.0499 6.19207 12.0498 7.16164 12.1444 7.94316C12.2469 8.79028 12.4823 9.63726 13.1044 10.3285C13.7266 11.0198 14.4888 11.2813 15.2513 11.3952C15.9546 11.5003 16.8272 11.5002 17.8146 11.5001L17.9 11.5001H21.4617C21.5 12.0344 21.5 12.6901 21.5 13.5629V14C21.5 17.7712 21.5 19.6569 20.4456 20.8284C19.3912 22 17.6941 22 14.3 22ZM6.425 14.5C6.425 14.0858 6.72721 13.75 7.1 13.75H14.3C14.6728 13.75 14.975 14.0858 14.975 14.5C14.975 14.9142 14.6728 15.25 14.3 15.25H7.1C6.72721 15.25 6.425 14.9142 6.425 14.5ZM6.425 18C6.425 17.5858 6.72721 17.25 7.1 17.25H12.05C12.4228 17.25 12.725 17.5858 12.725 18C12.725 18.4142 12.4228 18.75 12.05 18.75H7.1C6.72721 18.75 6.425 18.4142 6.425 18Z" fill="#858699"/>
<path d="M19.1165 7.61665L15.5536 4.05375C14.5386 3.03868 14.031 2.53114 13.4083 2.26562L13.4 5.00011C13.4 7.35713 13.4 8.53564 14.059 9.26787C14.718 10.0001 15.7787 10.0001 17.9 10.0001H21.1221C20.7958 9.29588 20.2115 8.71164 19.1165 7.61665Z" fill="#858699"/>
</svg>
