<svg width="25" height="24" viewBox="0 0 25 24" fill="none" xmlns="http://www.w3.org/2000/svg">
<path fill-rule="evenodd" clip-rule="evenodd" d="M6.16225 3.84815L2.51548 11.5082C2.5016 11.5367 2.49721 11.5689 2.50293 11.6C2.50866 11.6312 2.5242 11.6597 2.5473 11.6814L12.3963 21.1192C12.4243 21.146 12.4616 21.161 12.5003 21.161C12.5391 21.161 12.5764 21.146 12.6043 21.1192L22.4534 11.682C22.4765 11.6603 22.492 11.6318 22.4977 11.6006C22.5035 11.5694 22.4991 11.5373 22.4852 11.5088L18.8384 3.84873C18.8267 3.82301 18.8077 3.80122 18.7839 3.78596C18.7601 3.77071 18.7324 3.76263 18.7041 3.76271H6.29777C6.26934 3.76235 6.24142 3.77023 6.21738 3.78539C6.19333 3.80055 6.17418 3.82235 6.16225 3.84815Z" fill="#50AF95"/>
<path fill-rule="evenodd" clip-rule="evenodd" d="M13.7657 12.2948C13.695 12.3001 13.3296 12.3219 12.5147 12.3219C11.8666 12.3219 11.4064 12.3025 11.2449 12.2948C8.74011 12.1846 6.87047 11.7486 6.87047 11.2265C6.87047 10.7045 8.74011 10.269 11.2449 10.1571V11.8606C11.4087 11.8723 11.8778 11.9 12.5259 11.9C13.3037 11.9 13.6932 11.8676 13.7633 11.8612V10.1583C16.2629 10.2696 18.1284 10.7057 18.1284 11.2265C18.1284 11.7474 16.2634 12.1835 13.7633 12.2942L13.7657 12.2948ZM13.7657 9.98209V8.45774H17.2539V6.13322H7.75668V8.45774H11.2444V9.9815C8.40955 10.1117 6.2777 10.6733 6.2777 11.3462C6.2777 12.0191 8.40955 12.58 11.2444 12.7108V17.5956H13.7651V12.7091C16.5934 12.5788 18.7217 12.0179 18.7217 11.3456C18.7217 10.6733 16.5952 10.1123 13.7651 9.9815L13.7657 9.98209Z" fill="white"/>
</svg>
